<svg width="181" height="51" viewBox="0 0 181 51" fill="none" xmlns="http://www.w3.org/2000/svg">
<path d="M90.957 5.4597H95.3705V21.9C97.4454 20.1381 100.104 19.1782 102.975 19.1782C110.1 19.1782 114.94 25.0496 114.94 31.0813C114.94 37.1131 110.047 42.931 102.975 42.931C100.104 42.931 97.4454 41.9176 95.3705 40.2092V42.931H90.957V5.45703V5.4597ZM95.4238 31.084C95.4238 34.9287 98.6147 38.6103 102.975 38.6103C107.335 38.6103 110.526 34.926 110.526 31.084C110.526 27.242 107.388 23.4507 102.975 23.4507C98.5615 23.4507 95.4238 27.1885 95.4238 31.084Z" fill="#002B5C"/>
<path d="M117.109 42.9071V18.7773H121.576V21.0205C123.278 19.7933 125.353 19.1517 127.532 19.1517C131.309 19.1517 133.914 20.7532 135.935 23.3145C137.744 20.6462 140.509 19.1517 144.179 19.1517C151.624 19.1517 154.815 25.3973 154.815 31.1082V42.8777C154.815 42.8937 154.804 42.9044 154.788 42.9044H150.321C150.305 42.9044 150.295 42.8937 150.295 42.8777V31.1082C150.295 27.3705 148.699 23.4215 144.179 23.4215C140.032 23.4215 138.117 27.0523 138.117 30.627V42.9044H133.703V30.627C133.703 27.0496 131.735 23.4215 127.535 23.4215C123.121 23.4215 121.579 27.4239 121.579 31.1082V42.9044H117.112L117.109 42.9071Z" fill="#002B5C"/>
<path d="M30.8892 50.8645C30.178 50.8645 29.5308 50.3779 29.3523 49.6533C29.1446 48.8004 29.664 47.9395 30.5136 47.731C40.4087 45.298 47.3206 36.4482 47.3206 26.2054C47.3206 13.9868 37.4175 4.04348 25.2425 4.04348C13.0674 4.04348 3.16696 13.9841 3.16696 26.2027C3.16696 34.5873 7.76159 42.1163 15.1796 45.9343C15.2808 45.961 15.3793 46.0011 15.4752 46.0493C16.4048 46.5198 18.0535 46.862 19.3933 46.862H19.7396C23.4605 46.862 26.4863 43.8248 26.4863 40.0897C26.4863 40.0736 26.4863 40.0576 26.4863 40.0416L26.5103 39.2127V32.0794C26.5103 31.7853 26.5929 31.4966 26.7447 31.2479L35.6143 16.7808H14.5057L23.3753 31.2479C23.5298 31.4992 23.6097 31.788 23.6097 32.0794V39.9587C23.6097 40.8356 22.9012 41.5468 22.0276 41.5468C21.1539 41.5468 20.4454 40.8356 20.4454 39.9587V32.5286L10.3266 16.0241C10.0256 15.5348 10.0123 14.9199 10.292 14.4173C10.5716 13.9146 11.099 13.6045 11.6743 13.6045H38.451C39.0237 13.6045 39.5537 13.9146 39.8334 14.4173C40.1131 14.9199 40.0997 15.5348 39.7988 16.0241L29.6799 32.5286V39.2341C29.6799 39.2501 29.6799 39.2662 29.6799 39.2822L29.656 40.1111C29.6426 45.5867 25.1998 50.0383 19.7422 50.0383H19.396C17.678 50.0383 15.7629 49.6533 14.3885 49.0437C14.2766 49.017 14.1674 48.9769 14.0609 48.9234C5.38836 44.6189 0 35.9108 0 26.2027C0 12.2329 11.3254 0.864502 25.2425 0.864502C39.1595 0.864502 50.4849 12.2329 50.4849 26.2027C50.4849 37.9133 42.5822 48.0358 31.2647 50.8164C31.1396 50.8485 31.0117 50.8618 30.8865 50.8618L30.8892 50.8645Z" fill="#3FB5FF"/>
<path d="M64.3594 31.0305C64.3594 24.9453 69.2523 19.1809 76.3773 19.1809C79.1421 19.1809 81.8536 20.1407 83.9285 21.8492V19.7664H88.342V42.9337H83.9285V40.2653C81.8536 41.9203 79.1421 42.9337 76.3773 42.9337C69.199 42.9337 64.3594 37.1158 64.3594 31.0305ZM68.7729 31.0305C68.7729 34.9261 71.9638 38.6104 76.3773 38.6104C80.7908 38.6104 83.8752 34.8726 83.8752 31.0305C83.8752 27.1885 80.7375 23.4507 76.3773 23.4507C72.0171 23.4507 68.7729 27.0816 68.7729 31.0305Z" fill="#002B5C"/>
<path d="M157.016 31.0305C157.016 24.9453 161.909 19.1809 169.034 19.1809C171.798 19.1809 174.51 20.1407 176.585 21.8492V19.7664H180.998V42.9337H176.585V40.2653C174.51 41.9203 171.798 42.9337 169.034 42.9337C161.855 42.9337 157.016 37.1158 157.016 31.0305ZM161.429 31.0305C161.429 34.9261 164.62 38.6104 169.034 38.6104C173.447 38.6104 176.531 34.8726 176.531 31.0305C176.531 27.1885 173.394 23.4507 169.034 23.4507C164.673 23.4507 161.429 27.0816 161.429 31.0305Z" fill="#3FB5FF"/>
</svg>
