<?xml version="1.0" encoding="utf-8"?>
<!-- Generator: Adobe Illustrator 27.9.0, SVG Export Plug-In . SVG Version: 6.00 Build 0)  -->
<svg version="1.1" id="Layer_1" xmlns="http://www.w3.org/2000/svg" xmlns:xlink="http://www.w3.org/1999/xlink" x="0px" y="0px"
	 viewBox="0 0 540.9 97.5" style="enable-background:new 0 0 540.9 97.5;" xml:space="preserve">
<style type="text/css">
	.st0{fill:url(#Ideal_00000136393625014347130040000013200685698214418350_);}
	.st1{fill:#FFFFFF;}
	.st2{fill:url(#Icon_00000075855978398509100690000012841533705929081516_);}
</style>
<g id="Boost_Ideal_00000119098986085453321850000003138413833809872274_">
	
		<linearGradient id="Ideal_00000113323026231361414260000018174024877835517606_" gradientUnits="userSpaceOnUse" x1="371.96" y1="50.36" x2="540.92" y2="50.36" gradientTransform="matrix(1 0 0 -1 0 100)">
		<stop  offset="0" style="stop-color:#9242D4"/>
		<stop  offset="1" style="stop-color:#7461E0"/>
	</linearGradient>
	
		<path id="Ideal_00000062911992140372978560000010065733719470142340_" style="fill:url(#Ideal_00000113323026231361414260000018174024877835517606_);" d="
		M540.9,79.3c-0.1,0-0.2,0-0.3,0c-9.3,0-14.2-4.4-14.2-15.2V19.7h9V63c0,4.1,0.7,7.9,5.5,7.9l0,0L540.9,79.3L540.9,79.3z M372,79.3
		h9.4V20H372V79.3z M419.9,79.3h9V19.7h-9V45c-2.3-4.4-6.4-6.9-13.6-6.9c-11.7,0-18.7,7.1-18.7,20.7s8.1,20.7,19,20.7
		c7,0,11-2.8,13.3-7.1L419.9,79.3L419.9,79.3z M397,58.8c0-8.1,2.8-12.3,11.4-12.3c7.7,0,11.6,4.2,11.6,12.3s-3.9,12.4-11.6,12.4
		C400.9,71.1,397,66.8,397,58.8z M476.3,59.9c0-14.4-5.9-21.8-20.6-21.8c-13.2,0-20.5,7.4-20.5,20.7c0,13.6,7.2,20.8,21.9,20.8
		c12.1,0,18.7-5.9,18.7-14.5l-8.2-0.1c0,3.8-4.4,6.9-10.5,6.9c-7.1,0-11.6-2.7-12.4-10.4h31.5L476.3,59.9L476.3,59.9z M445,54.8
		c1.2-6,5.6-9.2,11.1-9.2c6.1,0,10.4,2.7,11.3,9.2H445z M511.3,53.4v0.2L497.4,55c-11,1.2-17.2,4.5-17.2,12.3
		c0,9.7,7.4,12.3,17.2,12.3c8.6,0,12.3-2.7,13.9-6.5v6.2h9V54.8c0-12.5-6.4-16.7-19.5-16.7c-11.4,0-18.4,4.2-18.4,14.7h8.2
		c0-6.7,5.7-7.1,10.2-7.1C505.1,45.7,511.3,46.3,511.3,53.4z M511.3,60.1v5.2c-0.4,2.9-3.8,6.7-12.6,6.7c-6.7,0-9.1-1.8-9.1-4.8
		c0-3.8,4.1-5.2,9.2-5.8L511.3,60.1z"/>
	<g id="Boost_00000095297668939110823470000017166137166410609035_">
		<path class="st1" d="M129.4,20h27.1c15.3,0,20.8,5.8,20.8,17c0,5.1-1.6,9.1-4.8,12c4.6,2.9,7.1,7.3,7.1,13
			c0,11.3-5.4,17.2-22.2,17.2h-28V20z M156.4,45c6.8,0,11.1-1.6,11.1-8c0-5.2-4.2-7.7-10.9-7.7h-17.7V45H156.4z M157.5,69.9
			c8,0,12.3-1.9,12.3-7.9c0-5.2-5.4-7.8-12.4-7.8h-18.6v15.7H157.5z"/>
		<path class="st1" d="M205.6,37.7c14.8,0,22,7.1,22,20.8s-7.1,20.8-22,20.8s-22-7.1-22-20.8S190.7,37.7,205.6,37.7z M205.6,70.8
			c8.5,0,12.6-4.2,12.6-12.3c0-8.2-4.1-12.4-12.6-12.4c-8.8,0-12.6,4.2-12.6,12.4C193,66.6,197.1,70.8,205.6,70.8z"/>
		<path class="st1" d="M254.2,37.7c14.8,0,22,7.1,22,20.8s-7.1,20.8-22,20.8c-14.8,0-22-7.1-22-20.8S239.4,37.7,254.2,37.7z
			 M254.2,70.8c8.5,0,12.6-4.2,12.6-12.3c0-8.2-4.1-12.4-12.6-12.4c-8.8,0-12.6,4.2-12.6,12.4C241.7,66.6,245.8,70.8,254.2,70.8z"/>
		<path class="st1" d="M299.4,37.7c13.7,0,19.8,4.3,19.8,14.5h-8.2c0-5.3-4.5-6.9-13.1-6.9c-7.5,0-8.9,2-8.9,4
			c0,2.2,3.3,3.8,12.1,5.3c11.1,2,18.6,3.1,18.6,12.6c0,8.6-6.3,12-18.1,12c-14.2,0-20.6-4.3-20.6-14.5h8.2c0,5.1,5.4,6.8,13.5,6.8
			c6.6,0,9.1-1.7,9.1-4.1c0-3.5-4.4-3.7-12.6-5.1c-8.6-1.3-18.1-3.6-18.1-13C281.1,41.1,287.3,37.7,299.4,37.7z"/>
		<path class="st1" d="M333,46.2h-9.4V38h9.4l3.1-14.8h5.9L341.9,38h19.7v8.2H342V63c0,4.1,0.7,7.8,5.5,7.8c3.5,0,6.2-1.7,6.2-7.6
			h8.2c0,12.2-5.6,16.1-14.8,16.1c-9.3,0-14.2-4.4-14.2-15.2L333,46.2L333,46.2z"/>
	</g>
	
		<linearGradient id="Icon_00000006671346688659828570000011751405639309871245_" gradientUnits="userSpaceOnUse" x1="4.967" y1="7.048" x2="92.947" y2="95.028" gradientTransform="matrix(1 0 0 -1 0 100)">
		<stop  offset="6.704585e-03" style="stop-color:#463BAA"/>
		<stop  offset="0.5486" style="stop-color:#A61FFF"/>
		<stop  offset="1" style="stop-color:#7485E0"/>
	</linearGradient>
	
		<path id="Icon_00000078727232574480867680000012989175397447207555_" style="fill:url(#Icon_00000006671346688659828570000011751405639309871245_);" d="
		M97.5,16.2C97.5,7.3,90.2,0,81.3,0H16.2C7.3,0,0,7.3,0,16.2v65.1c0,8.9,7.3,16.2,16.2,16.2h65.1c2.4,0,4.7-0.5,6.8-1.5
		c6.9-2.2,9.1-7.9,9.2-11.3v-0.9c0.1-0.8,0.2-1.6,0.2-2.5L97.5,16.2L97.5,16.2z M16.2,8.1h65.1c4.5,0,8.1,3.6,8.1,8.1v65.1
		c0,3.7-2.4,6.8-5.8,7.8c-0.5,0.1-1.1,0.1-1.8,0.1H52.6C52.1,89,51,88.6,50,87.6c-1.9-1.7-2.8-4.4-2.8-8c0-11.8-0.2-26.1-0.2-26.2
		l-0.1-3.8H14.4l-0.3,0c0,0-2.9,0.1-4.6-1.5c-0.7-0.7-1.2-1.6-1.4-2.8v-14h52.6l0.1,0l0.2,0c0.2,0,1.8,0,2.9,0.9
		c1.2,1.1,1.4,3.1,1.4,4.6v39.9H73V36.9c0-4.5-1.3-8-4-10.4c-3.3-3-7.4-3-8.5-2.9H8.1v-7.4C8.1,11.7,11.7,8.1,16.2,8.1z M8.1,81.3
		V56.2c2.9,1.2,5.6,1.2,6.4,1.1h24.8c0.1,5,0.2,14.3,0.2,22.3c0,4.1,0.9,7.3,2.3,9.8H16.2C11.7,89.4,8.1,85.8,8.1,81.3z"/>
</g>
</svg>
