<?xml version="1.0" encoding="utf-8"?>
<!-- Generator: Adobe Illustrator 27.9.0, SVG Export Plug-In . SVG Version: 6.00 Build 0)  -->
<svg version="1.1" id="Layer_1" xmlns="http://www.w3.org/2000/svg" xmlns:xlink="http://www.w3.org/1999/xlink" x="0px" y="0px"
	 viewBox="0 0 540.91 97.48" style="enable-background:new 0 0 540.91 97.48;" xml:space="preserve">
<style type="text/css">
	.st0{fill:url(#Ideal_00000139975053173947687580000005141352546375104651_);}
	.st1{fill:#0F0418;}
	.st2{fill:url(#Icon_00000053505444305391515220000000815983544690389415_);}
</style>
<g id="Boost_Ideal_00000119098986085453321850000003138413833809872274_">
	
		<linearGradient id="Ideal_00000159435152422552413320000005028530334605497984_" gradientUnits="userSpaceOnUse" x1="371.9579" y1="49.6376" x2="540.9079" y2="49.6376">
		<stop  offset="0" style="stop-color:#9242D4"/>
		<stop  offset="1" style="stop-color:#7461E0"/>
	</linearGradient>
	
		<path id="Ideal_00000062911992140372978560000010065733719470142340_" style="fill:url(#Ideal_00000159435152422552413320000005028530334605497984_);" d="
		M540.91,79.27c-0.11,0-0.21,0.01-0.31,0.01c-9.26,0-14.21-4.4-14.21-15.15V19.7h9.03v43.25c0,4.08,0.71,7.85,5.5,7.85c0,0,0,0,0,0
		V79.27z M371.96,79.28h9.39V20.01h-9.39V79.28z M419.93,79.27h9V19.7h-9v25.28c-2.27-4.38-6.42-6.89-13.62-6.89
		c-11.74,0-18.7,7.12-18.7,20.74c0,13.62,8.14,20.74,19.02,20.74c7.04,0,11.03-2.82,13.3-7.12V79.27z M397,58.75
		c0-8.06,2.82-12.29,11.35-12.29c7.67,0,11.58,4.23,11.58,12.29c0,8.06-3.91,12.37-11.58,12.37C400.91,71.12,397,66.82,397,58.75z
		 M476.28,59.93c0-14.4-5.87-21.83-20.58-21.83c-13.23,0-20.5,7.36-20.5,20.66c0,13.62,7.2,20.82,21.91,20.82
		c12.13,0,18.7-5.87,18.7-14.48l-8.22-0.08c0,3.76-4.38,6.89-10.49,6.89c-7.12,0-11.58-2.66-12.37-10.41h31.54V59.93z M444.97,54.84
		c1.25-6.03,5.63-9.16,11.11-9.16c6.1,0,10.41,2.74,11.27,9.16H444.97z M511.26,53.43v0.16L497.4,55
		c-11.03,1.17-17.22,4.46-17.22,12.29c0,9.7,7.36,12.29,17.22,12.29c8.61,0,12.29-2.66,13.85-6.5v6.19h9V54.76
		c0-12.52-6.42-16.67-19.49-16.67c-11.35,0-18.39,4.15-18.39,14.71h8.22c0-6.65,5.71-7.12,10.17-7.12
		C505.07,45.69,511.26,46.31,511.26,53.43z M511.26,60.09v5.17c-0.39,2.9-3.84,6.65-12.6,6.65c-6.73,0-9.08-1.8-9.08-4.77
		c0-3.83,4.07-5.24,9.16-5.79L511.26,60.09z"/>
	<g id="Boost_00000095297668939110823470000017166137166410609035_">
		<path class="st1" d="M129.41,20.01h27.09c15.31,0,20.81,5.76,20.81,17.01c0,5.08-1.57,9.14-4.79,12.02
			c4.63,2.88,7.14,7.28,7.14,13.03c0,11.34-5.42,17.18-22.22,17.18h-28.03V20.01z M156.42,44.98c6.75,0,11.07-1.61,11.07-7.96
			c0-5.25-4.24-7.7-10.91-7.7h-17.74v15.66H156.42z M157.52,69.95c8.01,0,12.33-1.95,12.33-7.87c0-5.16-5.42-7.79-12.4-7.79h-18.61
			v15.66H157.52z"/>
		<path class="st1" d="M205.57,37.67c14.84,0,21.98,7.14,21.98,20.81s-7.14,20.81-21.98,20.81c-14.84,0-21.98-7.14-21.98-20.81
			S190.73,37.67,205.57,37.67z M205.57,70.8c8.48,0,12.56-4.24,12.56-12.33c0-8.17-4.08-12.4-12.56-12.4
			c-8.79,0-12.56,4.24-12.56,12.4C193.01,66.57,197.09,70.8,205.57,70.8z"/>
		<path class="st1" d="M254.24,37.67c14.84,0,21.98,7.14,21.98,20.81s-7.14,20.81-21.98,20.81c-14.84,0-21.98-7.14-21.98-20.81
			S239.4,37.67,254.24,37.67z M254.24,70.8c8.48,0,12.56-4.24,12.56-12.33c0-8.17-4.08-12.4-12.56-12.4
			c-8.79,0-12.56,4.24-12.56,12.4C241.68,66.57,245.76,70.8,254.24,70.8z"/>
		<path class="st1" d="M299.38,37.67c13.66,0,19.78,4.32,19.78,14.52h-8.24c0-5.34-4.55-6.91-13.11-6.91c-7.46,0-8.87,2.04-8.87,4
			c0,2.2,3.3,3.77,12.09,5.34c11.15,1.96,18.61,3.14,18.61,12.64c0,8.64-6.28,12.01-18.14,12.01c-14.21,0-20.57-4.32-20.57-14.52
			h8.24c0,5.1,5.42,6.83,13.5,6.83c6.6,0,9.11-1.65,9.11-4.08c0-3.53-4.4-3.69-12.64-5.1c-8.56-1.33-18.06-3.61-18.06-12.95
			C281.09,41.13,287.29,37.67,299.38,37.67z"/>
		<path class="st1" d="M332.98,46.22h-9.42v-8.24h9.42l3.14-14.83h5.89l-0.08,14.83h19.71v8.24h-19.63v16.74
			c0,4.08,0.71,7.85,5.5,7.85c3.53,0,6.2-1.73,6.2-7.62h8.24c0,12.17-5.57,16.09-14.76,16.09c-9.26,0-14.21-4.4-14.21-15.15V46.22z"
			/>
	</g>
	
		<linearGradient id="Icon_00000013883917093914674800000009858927933827585412_" gradientUnits="userSpaceOnUse" x1="4.9691" y1="92.9465" x2="92.9463" y2="4.9693">
		<stop  offset="6.704585e-03" style="stop-color:#463BAA"/>
		<stop  offset="0.5486" style="stop-color:#A61FFF"/>
		<stop  offset="1" style="stop-color:#7485E0"/>
	</linearGradient>
	
		<path id="Icon_00000078727232574480867680000012989175397447207555_" style="fill:url(#Icon_00000013883917093914674800000009858927933827585412_);" d="
		M97.48,16.21C97.48,7.27,90.21,0,81.27,0H16.21C7.27,0,0,7.27,0,16.21v65.07c0,8.94,7.27,16.21,16.21,16.21h65.07
		c2.43,0,4.74-0.54,6.81-1.51c6.89-2.2,9.09-7.95,9.21-11.31l0-0.93c0.12-0.8,0.19-1.62,0.19-2.46V16.21z M16.21,8.08h65.07
		c4.48,0,8.13,3.65,8.13,8.13v65.07c0,3.66-2.43,6.76-5.76,7.78c-0.54,0.06-1.12,0.09-1.76,0.09H52.64
		c-0.49-0.15-1.6-0.58-2.67-1.56c-1.89-1.73-2.84-4.43-2.84-8.01c0-11.75-0.21-26.06-0.22-26.21l-0.06-3.8H14.38l-0.28,0.01
		c-0.03,0-2.9,0.11-4.62-1.49c-0.71-0.66-1.17-1.58-1.4-2.77V31.3h52.57l0.14,0.02l0.24-0.03c0.24-0.01,1.82-0.04,2.88,0.95
		c1.15,1.07,1.39,3.11,1.39,4.64v39.89h7.72V36.87c0-4.53-1.34-8.03-3.99-10.41c-3.31-2.97-7.39-2.95-8.53-2.87H8.08v-7.38
		C8.08,11.72,11.72,8.08,16.21,8.08z M8.08,81.27v-25.1c2.9,1.18,5.62,1.15,6.42,1.12h24.75c0.06,5.05,0.16,14.27,0.16,22.29
		c0,4.1,0.93,7.33,2.32,9.83H16.21C11.72,89.41,8.08,85.76,8.08,81.27z"/>
</g>
</svg>
