<?xml version="1.0" encoding="UTF-8"?>
<svg xmlns="http://www.w3.org/2000/svg" xmlns:xlink="http://www.w3.org/1999/xlink" width="32px" height="32px" viewBox="0 0 32 32" version="1.1">
<defs>
<linearGradient id="linear0" gradientUnits="userSpaceOnUse" x1="4.9691" y1="92.9465" x2="92.9463" y2="4.9693" gradientTransform="matrix(0.328272,0,0,0.328272,0,0.000000000000002344)">
<stop offset="0.00670458" style="stop-color:rgb(27.45098%,23.137255%,66.666667%);stop-opacity:1;"/>
<stop offset="0.5486" style="stop-color:rgb(65.098039%,12.156863%,100%);stop-opacity:1;"/>
<stop offset="1" style="stop-color:rgb(45.490196%,52.156863%,87.843137%);stop-opacity:1;"/>
</linearGradient>
</defs>
<g id="surface1">
<path style=" stroke:none;fill-rule:nonzero;fill:url(#linear0);" d="M 32 5.320312 C 32 2.386719 29.613281 0 26.679688 0 L 5.320312 0 C 2.386719 0 0 2.386719 0 5.320312 L 0 26.683594 C 0 29.617188 2.386719 32.003906 5.320312 32.003906 L 26.683594 32.003906 C 27.480469 32.003906 28.238281 31.824219 28.917969 31.507812 C 31.179688 30.785156 31.902344 28.898438 31.941406 27.792969 L 31.941406 27.488281 C 31.980469 27.226562 32.003906 26.957031 32.003906 26.683594 L 32.003906 5.320312 Z M 5.320312 2.652344 L 26.683594 2.652344 C 28.152344 2.652344 29.351562 3.851562 29.351562 5.320312 L 29.351562 26.683594 C 29.351562 27.882812 28.554688 28.902344 27.460938 29.234375 C 27.28125 29.253906 27.09375 29.265625 26.882812 29.265625 L 17.28125 29.265625 C 17.121094 29.214844 16.753906 29.074219 16.402344 28.753906 C 15.785156 28.183594 15.472656 27.300781 15.472656 26.125 C 15.472656 22.265625 15.402344 17.570312 15.398438 17.519531 L 15.378906 16.273438 L 4.71875 16.273438 L 4.628906 16.277344 C 4.617188 16.277344 3.675781 16.3125 3.113281 15.785156 C 2.878906 15.570312 2.726562 15.269531 2.652344 14.878906 L 2.652344 10.273438 L 19.910156 10.273438 L 19.957031 10.28125 L 20.035156 10.273438 C 20.113281 10.269531 20.632812 10.257812 20.980469 10.582031 C 21.355469 10.933594 21.4375 11.605469 21.4375 12.105469 L 21.4375 25.203125 L 23.96875 25.203125 L 23.96875 12.101562 C 23.96875 10.617188 23.53125 9.46875 22.660156 8.6875 C 21.574219 7.710938 20.234375 7.71875 19.859375 7.742188 L 2.652344 7.742188 L 2.652344 5.320312 C 2.652344 3.847656 3.847656 2.652344 5.320312 2.652344 Z M 2.652344 26.679688 L 2.652344 18.4375 C 3.605469 18.828125 4.496094 18.816406 4.761719 18.808594 L 12.882812 18.808594 C 12.90625 20.464844 12.9375 23.492188 12.9375 26.125 C 12.9375 27.46875 13.242188 28.53125 13.699219 29.351562 L 5.320312 29.351562 C 3.847656 29.351562 2.652344 28.152344 2.652344 26.679688 Z M 2.652344 26.679688 "/>
</g>
</svg>
