<svg width="48" height="48" viewBox="0 0 48 48" fill="none" xmlns="http://www.w3.org/2000/svg">
<circle cx="24" cy="24" r="24" fill="url(#paint0_linear_2032_50)"/>
<path d="M19.0004 32.981C17.6345 32.8761 16.3366 32.3423 15.2921 31.4559C14.2476 30.5694 13.5099 29.3756 13.1843 28.0449C12.8587 26.7141 12.9619 25.3146 13.4791 24.046C13.9964 22.7774 14.9012 21.7047 16.0644 20.981C16.3119 19.0511 17.2542 17.2775 18.7149 15.9922C20.1757 14.7068 22.0547 13.9978 24.0004 13.9978C25.9461 13.9978 27.8252 14.7068 29.2859 15.9922C30.7466 17.2775 31.6889 19.0511 31.9364 20.981C33.0996 21.7047 34.0045 22.7774 34.5217 24.046C35.039 25.3146 35.1421 26.7141 34.8166 28.0449C34.491 29.3756 33.7533 30.5694 32.7088 31.4559C31.6643 32.3423 30.3664 32.8761 29.0004 32.981V33H19.0004V32.981ZM25.0004 24V20H23.0004V24H20.0004L24.0004 29L28.0004 24H25.0004Z" fill="white"/>
<defs>
<linearGradient id="paint0_linear_2032_50" x1="12.7781" y1="9.24074" x2="39.2241" y2="48" gradientUnits="userSpaceOnUse">
<stop stop-color="#BEADFF"/>
<stop offset="1" stop-color="#836AE4"/>
</linearGradient>
</defs>
</svg>
