<?xml version="1.0" encoding="utf-8"?>
<!-- Generator: Adobe Illustrator 27.9.0, SVG Export Plug-In . SVG Version: 6.00 Build 0)  -->
<svg version="1.1" id="Layer_1" xmlns="http://www.w3.org/2000/svg" xmlns:xlink="http://www.w3.org/1999/xlink" x="0px" y="0px"
	 viewBox="0 0 110 110" style="enable-background:new 0 0 110 110;" xml:space="preserve">
<style type="text/css">
	.st0{fill:#FFFFFF;}
</style>
<path class="st0" d="M59.2,48.5c-0.4-0.3-0.8-0.5-1.2-0.6c-0.9-0.4-1.9-0.6-3-0.6c-2.2,0-4.1,0.9-5.5,2.3c-1.4,1.4-2.3,3.4-2.3,5.5
	c0,2.2,0.9,4.1,2.3,5.5c1.4,1.4,3.4,2.3,5.5,2.3c2,0,3.9-0.8,5.3-2c1.4-1.3,2.3-3.1,2.5-5.1c0.1-0.9,0.9-1.6,1.8-1.5
	c0.9,0.1,1.6,0.9,1.5,1.8c-0.2,2.9-1.6,5.4-3.6,7.3c-2,1.8-4.6,2.9-7.5,2.9c-3.1,0-5.9-1.2-7.9-3.3c-2-2-3.3-4.8-3.3-7.9
	c0-3.1,1.2-5.9,3.3-7.9c2-2,4.8-3.3,7.9-3.3c1.5,0,2.9,0.3,4.3,0.8c0.8,0.3,1.6,0.8,2.3,1.3l6.1-6.1c-1.5-1.3-3.3-2.4-5.2-3.2
	c-2.3-1-4.9-1.5-7.6-1.5c-5.4,0-10.4,2.2-14,5.8c-3.6,3.6-5.8,8.5-5.8,14s2.2,10.4,5.8,14c3.6,3.6,8.5,5.8,14,5.8s10.4-2.2,14-5.8
	c3.6-3.6,5.8-8.5,5.8-14c0-1.5-0.2-3-0.5-4.3c-0.3-1.4-0.8-2.8-1.4-4.1c-0.4-0.8,0-1.8,0.8-2.2c0.8-0.4,1.8,0,2.2,0.8
	c0.7,1.5,1.3,3.1,1.6,4.8c0.4,1.6,0.6,3.3,0.6,5c0,6.4-2.6,12.1-6.8,16.3c-4.2,4.2-9.9,6.8-16.3,6.8s-12.1-2.6-16.3-6.8
	c-4.2-4.2-6.8-9.9-6.8-16.3s2.6-12.1,6.8-16.3S48.6,32,55,32c3.1,0,6.1,0.6,8.8,1.8c2.3,1,4.4,2.3,6.3,3.9l2.4-2.4
	c0-2.4,0.1-4.8,0.1-7.2c-2.5-1.6-5.1-2.9-8-3.8c-3-0.9-6.3-1.4-9.6-1.4c-8.9,0-17,3.6-22.8,9.5c-5.8,5.8-9.5,13.9-9.5,22.8
	c0,8.9,3.6,17,9.5,22.8C38,83.7,46,87.3,55,87.3c8.9,0,17-3.6,22.8-9.5C83.6,72,87.2,64,87.2,55c0-3.4-0.5-6.6-1.4-9.6
	c-0.9-2.9-2.2-5.5-3.8-8l-7.2,0.1L56.1,56.2c-0.7,0.7-1.7,0.7-2.4,0c-0.7-0.7-0.7-1.7,0-2.4L59.2,48.5z M83,27l6.3,1.1
	c0.9,0.2,1.5,1,1.4,1.9c-0.1,0.4-0.2,0.7-0.5,0.9h0L85.1,36c1.7,2.6,3,5.4,3.9,8.4c1,3.4,1.6,6.9,1.6,10.6c0,9.8-4,18.7-10.4,25.2
	C73.7,86.7,64.8,90.7,55,90.7c-9.8,0-18.7-4-25.2-10.4C23.3,73.8,19.3,64.9,19.3,55s4-18.7,10.4-25.2c6.4-6.4,15.4-10.4,25.2-10.4
	c3.7,0,7.2,0.6,10.6,1.6c3,0.9,5.8,2.3,8.4,3.9l5.1-5.1c0.7-0.7,1.7-0.7,2.4,0c0.3,0.3,0.4,0.6,0.5,1L83,27L83,27z M85.5,30.8
	l-4.2-0.7c-0.7-0.1-1.3-0.6-1.4-1.4l-0.7-4.3l-3.3,3.3l-0.1,6.4l6.4-0.1L85.5,30.8L85.5,30.8z"/>
</svg>
