<?xml version="1.0" encoding="utf-8"?>
<!-- Generator: Adobe Illustrator 27.9.0, SVG Export Plug-In . SVG Version: 6.00 Build 0)  -->
<svg version="1.1" id="Layer_1" xmlns="http://www.w3.org/2000/svg" xmlns:xlink="http://www.w3.org/1999/xlink" x="0px" y="0px"
	 viewBox="0 0 110 110" style="enable-background:new 0 0 110 110;" xml:space="preserve">
<style type="text/css">
	.st0{fill:#FFFFFF;}
	.st1{display:none;fill:#FFFFFF;}
</style>
<g>
	<path class="st0" d="M87.9,72.2c-1.5-1.5-3.3-2.7-5.3-3.5c2.2-1.7,3.6-4.4,3.6-7.4c0-5.2-4.2-9.4-9.4-9.4s-9.4,4.2-9.4,9.4
		c0,3,1.4,5.6,3.6,7.4c-1.9,0.8-3.7,1.9-5.2,3.4c-1.5-1.4-3.2-2.6-5.2-3.4c2.2-1.7,3.7-4.4,3.7-7.4c0-5.2-4.2-9.4-9.4-9.4
		s-9.4,4.2-9.4,9.4c0,3,1.4,5.7,3.7,7.4c-1.9,0.8-3.7,1.9-5.2,3.3c-1.5-1.5-3.3-2.6-5.2-3.4c2.2-1.7,3.6-4.4,3.6-7.4
		c0-5.2-4.2-9.4-9.4-9.4s-9.4,4.2-9.4,9.4c0,3,1.4,5.6,3.6,7.4c-2,0.8-3.8,1.9-5.3,3.5c-3,2.9-4.6,6.8-4.6,11v1.6
		c0,0.9,0.7,1.6,1.6,1.6h71.8c0.9,0,1.6-0.7,1.6-1.6v-1.6C92.5,79,90.8,75.1,87.9,72.2L87.9,72.2z M70.6,61.4c0-3.4,2.8-6.2,6.2-6.2
		s6.2,2.8,6.2,6.2c0,3.4-2.8,6.2-6.2,6.2S70.6,64.8,70.6,61.4z M48.7,61.4c0-3.4,2.8-6.2,6.2-6.2c3.4,0,6.2,2.8,6.2,6.2
		c0,3.4-2.8,6.2-6.2,6.2C51.5,67.6,48.7,64.8,48.7,61.4z M33.1,55.1c3.4,0,6.2,2.8,6.2,6.2c0,3.4-2.8,6.2-6.2,6.2
		c-3.4,0-6.3-2.8-6.3-6.2C26.9,57.9,29.7,55.1,33.1,55.1z M24.3,74.4c2.3-2.4,5.5-3.7,8.8-3.7c3.4,0,6.5,1.4,8.8,3.8
		c-1.7,2.5-2.7,5.5-2.7,8.7H20.7C20.7,79.9,22,76.7,24.3,74.4L24.3,74.4z M62.8,83.2H42.5c0-6.9,5.6-12.5,12.5-12.5
		c6.9,0,12.5,5.6,12.5,12.5H62.8z M70.6,83.2c0-3.2-1-6.2-2.6-8.7c2.3-2.4,5.5-3.8,8.9-3.8c3.4,0,6.5,1.3,8.8,3.7
		c2.4,2.3,3.7,5.5,3.7,8.8L70.6,83.2z"/>
	<path class="st0" d="M48.7,36.8l-0.9,5.5c-0.1,0.6,0.1,1.2,0.6,1.5c0.5,0.4,1.1,0.4,1.6,0.1l5-2.6l5,2.6c0.2,0.1,0.5,0.2,0.7,0.2
		c0.3,0,0.6-0.1,0.9-0.3c0.5-0.3,0.7-0.9,0.6-1.5l-0.9-5.5l4-3.9c0.4-0.4,0.6-1,0.4-1.6c-0.2-0.6-0.7-1-1.3-1.1l-5.5-0.8l-2.5-5
		c-0.5-1.1-2.3-1.1-2.8,0l-2.5,5l-5.5,0.8c-0.6,0.1-1.1,0.5-1.3,1.1c-0.2,0.6,0,1.2,0.4,1.6L48.7,36.8z M52.4,32.4
		c0.5-0.1,0.9-0.4,1.2-0.9l1.4-2.9l1.4,2.9c0.2,0.5,0.7,0.8,1.2,0.9l3.2,0.5l-2.3,2.3c-0.4,0.4-0.5,0.9-0.4,1.4l0.6,3.2l-2.9-1.5
		c-0.2-0.1-0.5-0.2-0.7-0.2s-0.5,0.1-0.7,0.2l-2.9,1.5l0.6-3.2c0.1-0.5-0.1-1-0.4-1.4l-2.3-2.3L52.4,32.4z"/>
	<path class="st0" d="M70.6,43.1l-0.9,5.5c-0.1,0.6,0.1,1.2,0.6,1.5c0.5,0.4,1.1,0.4,1.6,0.1l5-2.6l5,2.6c0.2,0.1,0.5,0.2,0.7,0.2
		c0.3,0,0.6-0.1,0.9-0.3c0.5-0.3,0.7-0.9,0.6-1.5l-0.9-5.5l4-3.9c0.4-0.4,0.6-1,0.4-1.6c-0.2-0.6-0.7-1-1.3-1.1l-5.5-0.8l-2.5-5
		c-0.5-1.1-2.3-1.1-2.8,0l-2.5,5l-5.5,0.8c-0.6,0.1-1.1,0.5-1.3,1.1c-0.2,0.6,0,1.2,0.4,1.6L70.6,43.1z M74.2,38.7
		c0.5-0.1,0.9-0.4,1.2-0.9l1.4-2.9l1.4,2.9c0.2,0.5,0.7,0.8,1.2,0.9l3.2,0.5l-2.3,2.3c-0.4,0.4-0.5,0.9-0.4,1.4l0.6,3.2l-2.9-1.5
		c-0.2-0.1-0.5-0.2-0.7-0.2s-0.5,0.1-0.7,0.2L73.2,46l0.6-3.2c0.1-0.5-0.1-1-0.4-1.4L71,39.2L74.2,38.7z"/>
	<path class="st0" d="M26.9,43.1l-0.9,5.5c-0.1,0.6,0.1,1.2,0.6,1.5c0.5,0.4,1.1,0.4,1.6,0.1l5-2.6l5,2.6c0.2,0.1,0.5,0.2,0.7,0.2
		c0.3,0,0.6-0.1,0.9-0.3c0.5-0.3,0.7-0.9,0.6-1.5l-0.9-5.5l4-3.9c0.4-0.4,0.6-1,0.4-1.6c-0.2-0.6-0.7-1-1.3-1.1L37,35.7l-2.5-5
		c-0.5-1.1-2.3-1.1-2.8,0l-2.5,5l-5.5,0.8c-0.6,0.1-1.1,0.5-1.3,1.1c-0.2,0.6,0,1.2,0.4,1.6L26.9,43.1z M30.5,38.7
		c0.5-0.1,0.9-0.4,1.2-0.9l1.4-2.9l1.4,2.9c0.2,0.5,0.7,0.8,1.2,0.9l3.2,0.5l-2.3,2.3c-0.4,0.4-0.5,0.9-0.4,1.4l0.6,3.2l-2.9-1.5
		c-0.2-0.1-0.5-0.2-0.7-0.2s-0.5,0.1-0.7,0.2L29.5,46l0.6-3.2c0.1-0.5-0.1-1-0.4-1.4l-2.3-2.3L30.5,38.7z"/>
</g>
<path class="st1" d="M59.2,48.5c-0.4-0.3-0.8-0.5-1.2-0.6c-0.9-0.4-1.9-0.6-3-0.6c-2.2,0-4.1,0.9-5.5,2.3c-1.4,1.4-2.3,3.4-2.3,5.5
	c0,2.2,0.9,4.1,2.3,5.5c1.4,1.4,3.4,2.3,5.5,2.3c2,0,3.9-0.8,5.3-2c1.4-1.3,2.3-3.1,2.5-5.1c0.1-0.9,0.9-1.6,1.8-1.5
	c0.9,0.1,1.6,0.9,1.5,1.8c-0.2,2.9-1.6,5.4-3.6,7.3c-2,1.8-4.6,2.9-7.5,2.9c-3.1,0-5.9-1.2-7.9-3.3c-2-2-3.3-4.8-3.3-7.9
	c0-3.1,1.2-5.9,3.3-7.9c2-2,4.8-3.3,7.9-3.3c1.5,0,2.9,0.3,4.3,0.8c0.8,0.3,1.6,0.8,2.3,1.3l6.1-6.1c-1.5-1.3-3.3-2.4-5.2-3.2
	c-2.3-1-4.9-1.5-7.6-1.5c-5.4,0-10.4,2.2-14,5.8c-3.6,3.6-5.8,8.5-5.8,14s2.2,10.4,5.8,14c3.6,3.6,8.5,5.8,14,5.8s10.4-2.2,14-5.8
	c3.6-3.6,5.8-8.5,5.8-14c0-1.5-0.2-3-0.5-4.3c-0.3-1.4-0.8-2.8-1.4-4.1c-0.4-0.8,0-1.8,0.8-2.2c0.8-0.4,1.8,0,2.2,0.8
	c0.7,1.5,1.3,3.1,1.6,4.8c0.4,1.6,0.6,3.3,0.6,5c0,6.4-2.6,12.1-6.8,16.3c-4.2,4.2-9.9,6.8-16.3,6.8s-12.1-2.6-16.3-6.8
	c-4.2-4.2-6.8-9.9-6.8-16.3s2.6-12.1,6.8-16.3S48.6,32,55,32c3.1,0,6.1,0.6,8.8,1.8c2.3,1,4.4,2.3,6.3,3.9l2.4-2.4
	c0-2.4,0.1-4.8,0.1-7.2c-2.5-1.6-5.1-2.9-8-3.8c-3-0.9-6.3-1.4-9.6-1.4c-8.9,0-17,3.6-22.8,9.5c-5.8,5.8-9.5,13.9-9.5,22.8
	c0,8.9,3.6,17,9.5,22.8C38,83.7,46,87.3,55,87.3c8.9,0,17-3.6,22.8-9.5C83.6,72,87.2,64,87.2,55c0-3.4-0.5-6.6-1.4-9.6
	c-0.9-2.9-2.2-5.5-3.8-8l-7.2,0.1L56.1,56.2c-0.7,0.7-1.7,0.7-2.4,0c-0.7-0.7-0.7-1.7,0-2.4L59.2,48.5z M83,27l6.3,1.1
	c0.9,0.2,1.5,1,1.4,1.9c-0.1,0.4-0.2,0.7-0.5,0.9h0L85.1,36c1.7,2.6,3,5.4,3.9,8.4c1,3.4,1.6,6.9,1.6,10.6c0,9.8-4,18.7-10.4,25.2
	C73.7,86.7,64.8,90.7,55,90.7c-9.8,0-18.7-4-25.2-10.4C23.3,73.8,19.3,64.9,19.3,55s4-18.7,10.4-25.2c6.4-6.4,15.4-10.4,25.2-10.4
	c3.7,0,7.2,0.6,10.6,1.6c3,0.9,5.8,2.3,8.4,3.9l5.1-5.1c0.7-0.7,1.7-0.7,2.4,0c0.3,0.3,0.4,0.6,0.5,1L83,27L83,27z M85.5,30.8
	l-4.2-0.7c-0.7-0.1-1.3-0.6-1.4-1.4l-0.7-4.3l-3.3,3.3l-0.1,6.4l6.4-0.1L85.5,30.8L85.5,30.8z"/>
</svg>
