<?xml version="1.0" encoding="utf-8"?>
<!-- Generator: Adobe Illustrator 27.9.0, SVG Export Plug-In . SVG Version: 6.00 Build 0)  -->
<svg version="1.1" id="Layer_1" xmlns="http://www.w3.org/2000/svg" xmlns:xlink="http://www.w3.org/1999/xlink" x="0px" y="0px"
	 viewBox="0 0 110 110" style="enable-background:new 0 0 110 110;" xml:space="preserve">
<style type="text/css">
	.st0{fill:#FFFFFF;}
</style>
<path class="st0" d="M33.7,58.1H22.6c-0.5,0-0.8,0.4-0.8,0.8v22.6c0,0.5,0.4,0.8,0.8,0.8h11.1c0.5,0,0.8-0.4,0.8-0.8V58.9
	C34.5,58.5,34.1,58.1,33.7,58.1z M32.9,80.7h-9.6v-21h9.5L32.9,80.7L32.9,80.7z M51.6,51.6H40.5c-0.5,0-0.8,0.4-0.8,0.8v29.1
	c0,0.5,0.4,0.8,0.8,0.8h11.1c0.5,0,0.8-0.4,0.8-0.8V52.4C52.4,52,52,51.6,51.6,51.6L51.6,51.6z M50.8,80.7h-9.5V53.2h9.5
	C50.8,53.2,50.8,80.7,50.8,80.7z M69.5,54.1H58.4c-0.5,0-0.8,0.4-0.8,0.8v26.7c0,0.5,0.4,0.8,0.8,0.8h11.1c0.5,0,0.8-0.4,0.8-0.8
	V54.8C70.3,54.5,70,54.1,69.5,54.1z M68.7,80.7h-9.5V55.6h9.5V80.7z M87.4,44.9H76.3c-0.5,0-0.8,0.4-0.8,0.8v35.8
	c0,0.5,0.4,0.8,0.8,0.8h11.1c0.5,0,0.8-0.4,0.8-0.8V45.7C88.2,45.3,87.9,44.9,87.4,44.9z M86.6,80.7h-9.6V46.5h9.5L86.6,80.7
	L86.6,80.7z M26.5,45.9h3.4c0.5,0,0.8-0.4,0.8-0.8v-1.8l12.9-4.8c0,0.4,0.4,0.7,0.8,0.7h3.4c0.5,0,0.8-0.4,0.8-0.8v-0.5l12.9,1.8V41
	c0,0.5,0.4,0.8,0.8,0.8h3.4c0.5,0,0.8-0.4,0.8-0.8v-2.1l13-6.6c0.2,0.2,0.4,0.4,0.7,0.4h3.4c0.5,0,0.8-0.4,0.8-0.8v-3.4
	c0-0.5-0.4-0.8-0.8-0.8h-3.4c-0.5,0-0.8,0.4-0.8,0.8v2.1l-13,6.6c-0.2-0.2-0.4-0.4-0.7-0.4h-3.4c-0.5,0-0.8,0.4-0.8,0.8v0.5
	l-12.9-1.8v-1.2c0-0.5-0.4-0.8-0.8-0.8h-3.4c-0.5,0-0.8,0.4-0.8,0.8v1.8l-12.9,4.8c0-0.4-0.4-0.7-0.8-0.7h-3.4
	c-0.5,0-0.8,0.4-0.8,0.8v3.4C25.6,45.5,26,45.9,26.5,45.9L26.5,45.9z M81,29.3h1.8v1.8H81V29.3z M63,38.4h1.8v1.8H63V38.4z
	 M45.2,35.9H47v1.8h-1.8V35.9z M27.3,42.5H29v1.8h-1.8V42.5z"/>
</svg>
