<?xml version="1.0" encoding="utf-8"?>
<!-- Generator: Adobe Illustrator 27.9.0, SVG Export Plug-In . SVG Version: 6.00 Build 0)  -->
<svg version="1.1" id="Layer_1" xmlns="http://www.w3.org/2000/svg" xmlns:xlink="http://www.w3.org/1999/xlink" x="0px" y="0px"
	 viewBox="0 0 110 110" style="enable-background:new 0 0 110 110;" xml:space="preserve">
<style type="text/css">
	.st0{fill:#FFFFFF;}
</style>
<path class="st0" d="M55,86c17.1,0,31-13.9,31-31S72.1,24,55,24S24,37.9,24,55S37.9,86,55,86z M80,55H60c-2.8,0-5-2.2-5-5V30
	C68.8,30,80,41.2,80,55z M49,30.7V50c0,6.1,4.9,11,11,11h19.3C76.6,71.9,66.7,80,55,80c-13.8,0-25-11.2-25-25
	C30,43.3,38.1,33.4,49,30.7z"/>
</svg>
