<?xml version="1.0" encoding="utf-8"?>
<!-- Generator: Adobe Illustrator 27.9.0, SVG Export Plug-In . SVG Version: 6.00 Build 0)  -->
<svg version="1.1" id="Layer_1" xmlns="http://www.w3.org/2000/svg" xmlns:xlink="http://www.w3.org/1999/xlink" x="0px" y="0px"
	 viewBox="0 0 86.5 63.6" style="enable-background:new 0 0 86.5 63.6;" xml:space="preserve">
<style type="text/css">
	.st0{fill:#9242D4;}
</style>
<g>
	<path class="st0" d="M39.6,47c-0.4-0.4-1-0.4-1.4-0.1s-0.4,1-0.1,1.4c0,0,0,0,0.1,0.1l2.6,2.6h-10c-0.5-9.7-8.2-17.4-17.9-17.9v-10
		l2.6,2.6c0.4,0.4,1,0.4,1.4,0c0.4-0.4,0.4-1,0-1.4l-4.3-4.3c-0.4-0.4-1-0.4-1.4,0l-4.3,4.3c-0.4,0.4-0.4,1,0,1.4
		c0.4,0.4,1,0.4,1.4,0l2.6-2.6V52c0,0.6,0.4,1,1,1h28.9l-2.6,2.6c-0.4,0.4-0.4,1,0,1.4c0.4,0.4,1,0.4,1.4,0c0,0,0,0,0,0l4.3-4.3
		c0.4-0.4,0.4-1,0-1.4L39.6,47z M60.1,38.4c0,0.6-0.4,1-1,1H56c-0.6,0-1-0.4-1-1s0.4-1,1-1h3.1C59.7,37.4,60.1,37.9,60.1,38.4z
		 M79.8,38.4c0,0.6-0.4,1-1,1H64.5c-0.6,0-1-0.4-1-1s0.4-1,1-1h14.4C79.4,37.4,79.8,37.9,79.8,38.4L79.8,38.4z M60.1,34
		c0,0.6-0.4,1-1,1H56c-0.6,0-1-0.4-1-1s0.4-1,1-1h3.1C59.7,33,60.1,33.5,60.1,34z M79.8,34c0,0.6-0.4,1-1,1H64.5c-0.6,0-1-0.4-1-1
		s0.4-1,1-1h14.4C79.4,33,79.8,33.5,79.8,34L79.8,34z M60.1,29.6c0,0.6-0.4,1-1,1H56c-0.6,0-1-0.4-1-1s0.4-1,1-1h3.1
		C59.7,28.6,60.1,29,60.1,29.6z M79.8,29.6c0,0.6-0.4,1-1,1H64.5c-0.6,0-1-0.4-1-1s0.4-1,1-1h14.4C79.4,28.6,79.8,29,79.8,29.6
		L79.8,29.6z M60.1,42.9c0,0.6-0.4,1-1,1H56c-0.6,0-1-0.4-1-1s0.4-1,1-1h3.1C59.7,41.9,60.1,42.3,60.1,42.9z M79.8,42.9
		c0,0.6-0.4,1-1,1H64.5c-0.6,0-1-0.4-1-1s0.4-1,1-1h14.4C79.4,41.9,79.8,42.3,79.8,42.9L79.8,42.9z M60.1,47.3c0,0.6-0.4,1-1,1H56
		c-0.6,0-1-0.4-1-1s0.4-1,1-1h3.1C59.7,46.3,60.1,46.8,60.1,47.3z M79.8,47.3c0,0.6-0.4,1-1,1H64.5c-0.6,0-1-0.4-1-1s0.4-1,1-1h14.4
		C79.4,46.3,79.8,46.8,79.8,47.3L79.8,47.3z M80.2,1H6C3.2,1,0.9,3.4,0.9,6.2v50.6C0.9,59.7,3.2,62,6,62h74.2c2.9,0,5.2-2.3,5.2-5.2
		V6.2C85.4,3.3,83.1,1,80.2,1L80.2,1z M66.8,10.9h8.5c2.3,0,4.2-1.9,4.2-4.2V6.2c0-0.6,0.4-1,1-1s1,0.4,1,1v0.5
		c0,3.4-2.8,6.2-6.2,6.2h-8.5c-0.6,0-1-0.4-1-1S66.2,10.9,66.8,10.9z M53.1,10.9h7c0.6,0,1,0.4,1,1s-0.4,1-1,1h-7c-0.6,0-1-0.4-1-1
		S52.6,10.9,53.1,10.9z M83.4,56.8c0,1.8-1.4,3.2-3.2,3.2H6c-1.8,0-3.2-1.4-3.2-3.2V16.9h80.5V56.8z"/>
</g>
</svg>
