<?xml version="1.0" encoding="utf-8"?>
<!-- Generator: Adobe Illustrator 27.9.0, SVG Export Plug-In . SVG Version: 6.00 Build 0)  -->
<svg version="1.1" id="Layer_1" xmlns="http://www.w3.org/2000/svg" xmlns:xlink="http://www.w3.org/1999/xlink" x="0px" y="0px"
	 viewBox="0 0 100 57.8" style="enable-background:new 0 0 100 57.8;" xml:space="preserve">
<style type="text/css">
	.st0{fill:#9242D4;}
</style>
<path class="st0" d="M44.9,22.9H31.5c-1.1,0-2-0.9-2-2s0.9-2,2-2h13.3c1.1,0,2,0.9,2,2S46,22.9,44.9,22.9z"/>
<path class="st0" d="M17.9,22.9h-7.6c-1.1,0-2-0.9-2-2s0.9-2,2-2h7.6c1.1,0,2,0.9,2,2S19,22.9,17.9,22.9z"/>
<path class="st0" d="M44.9,31.2H29.5c-1.1,0-2-0.9-2-2s0.9-2,2-2h15.3c1.1,0,2,0.9,2,2S46,31.2,44.9,31.2z"/>
<path class="st0" d="M17,31.2H4c-1.1,0-2-0.9-2-2s0.9-2,2-2h13c1.1,0,2,0.9,2,2S18.1,31.2,17,31.2z"/>
<path class="st0" d="M44.9,39.5H33.3c-1.1,0-2-0.9-2-2s0.9-2,2-2h11.6c1.1,0,2,0.9,2,2S46,39.5,44.9,39.5z"/>
<path class="st0" d="M19.7,39.5h-9.5c-1.1,0-2-0.9-2-2s0.9-2,2-2h9.5c1.1,0,2,0.9,2,2S20.8,39.5,19.7,39.5z"/>
<path class="st0" d="M46.8,53.1c-14.1,0-25.6-11.5-25.6-25.6S32.7,1.8,46.8,1.8s25.6,11.5,25.6,25.6c0,6.8-2.7,13.3-7.5,18.1
	C60.1,50.4,53.6,53.1,46.8,53.1z M46.8,5.8c-12,0-21.6,9.7-21.6,21.6s9.7,21.6,21.6,21.6s21.6-9.7,21.6-21.6
	c0-5.7-2.3-11.2-6.3-15.3C58,8.1,52.5,5.8,46.8,5.8z"/>
<path class="st0" d="M88.1,54.7c-1,0-2-0.2-2.9-0.6l-0.1-0.1L70,45.8c-1-0.5-1.3-1.7-0.8-2.7s1.7-1.3,2.7-0.8L87,50.4
	c0.7,0.3,1.4,0.3,2.1,0.1c0.6-0.2,1.2-0.7,1.4-1.3c0.5-1.4-0.1-2.9-1.5-3.4l-16.2-6.1c-1-0.5-1.3-1.7-0.8-2.7c0.4-0.8,1.4-1.2,2.2-1
	l16.5,6.2c3.4,1.5,4.9,5.4,3.4,8.8c-0.7,1.6-2.1,2.8-3.8,3.4C89.6,54.6,88.8,54.7,88.1,54.7z"/>
</svg>
