<?xml version="1.0" encoding="utf-8"?>
<!-- Generator: Adobe Illustrator 27.9.0, SVG Export Plug-In . SVG Version: 6.00 Build 0)  -->
<svg version="1.1" id="Layer_1" xmlns="http://www.w3.org/2000/svg" xmlns:xlink="http://www.w3.org/1999/xlink" x="0px" y="0px"
	 viewBox="0 0 78.5 97.2" style="enable-background:new 0 0 78.5 97.2;" xml:space="preserve">
<style type="text/css">
	.st0{fill:#9242D4;}
</style>
<path class="st0" d="M61.5,47.4h-7.2L40.7,33.7c-0.6-0.6-1.6-0.6-2.2,0L24.8,47.4h-7.2c-8.3,0-15,6.8-15,15.1v8.4
	c0,8.3,6.8,15,15,15H20v6.4c0,0.9,0.7,1.6,1.6,1.6h36c0.9,0,1.6-0.7,1.6-1.6v-6.4h12.1l-5.8,5.8c-0.6,0.6-0.6,1.6,0,2.2
	c0.3,0.3,0.7,0.5,1.1,0.5c0.4,0,0.8-0.2,1.1-0.5l8.5-8.5c0.3-0.3,0.5-0.7,0.5-1.1c0-0.4-0.2-0.8-0.5-1.1l-8.5-8.5
	c-0.6-0.6-1.6-0.6-2.2,0c-0.6,0.6-0.6,1.6,0,2.2l5.8,5.8H59.1v-6.4c0-0.9-0.7-1.6-1.6-1.6h-36c-0.9,0-1.6,0.7-1.6,1.6v6.4h-2.3
	c-6.6,0-11.9-5.3-11.9-11.9v-8.4c0-6.6,5.3-11.9,11.9-11.9h7.1l13.7,13.7c0.3,0.3,0.7,0.5,1.1,0.5c0.4,0,0.8-0.2,1.1-0.5l13.7-13.7
	h7.1c8.3,0,15-6.8,15-15v-8.4c0-8.3-6.8-15.1-15-15.1H25.8l0-8.4C25.7,2.7,25,2,24.2,2h-20C3.3,2,2.6,2.7,2.6,3.6v20
	c0,0.9,0.7,1.6,1.6,1.6h20c0.9,0,1.6-0.7,1.6-1.6v-8.4h35.8c6.6,0,11.9,5.4,11.9,11.9v8.4C73.5,42.1,68.1,47.4,61.5,47.4L61.5,47.4z
	 M23.1,78H56v12.7H23.1V78z M39.6,60.9L27.7,49l11.9-11.9L51.5,49L39.6,60.9z M22.6,22H5.8V5.1h16.9V22z"/>
</svg>
