<?xml version="1.0" encoding="utf-8"?>
<!-- Generator: Adobe Illustrator 27.9.0, SVG Export Plug-In . SVG Version: 6.00 Build 0)  -->
<svg version="1.1" id="Layer_1" xmlns="http://www.w3.org/2000/svg" xmlns:xlink="http://www.w3.org/1999/xlink" x="0px" y="0px"
	 viewBox="0 0 25 25" style="enable-background:new 0 0 25 25;" xml:space="preserve">
<style type="text/css">
	.st0{fill:#FAA1FF;}
</style>
<g>
	<path class="st0" d="M24.1,14.6c-0.6,0.6-1.3,0.9-2.1,0.9h-6.5V22c0,1.7-1.3,3-3,3s-3-1.3-3-3v-6.5H3c-1.7,0-3-1.3-3-3s1.3-3,3-3
		h6.5V3c0-1.7,1.3-3,3-3s3,1.3,3,3v6.5H22c1.7,0,3,1.3,3,3C25,13.3,24.7,14.1,24.1,14.6z"/>
</g>
</svg>
