<?xml version="1.0" encoding="utf-8"?>
<!-- Generator: Adobe Illustrator 27.9.0, SVG Export Plug-In . SVG Version: 6.00 Build 0)  -->
<svg version="1.1" xmlns="http://www.w3.org/2000/svg" xmlns:xlink="http://www.w3.org/1999/xlink" x="0px" y="0px"
	 viewBox="0 0 100 57.6" style="enable-background:new 0 0 100 57.6;" xml:space="preserve">
<style type="text/css">
	.st0{fill:#9242D4;}
</style>
<g id="Layer_2">
</g>
<g id="Layer_1">
	<g>
		<g>
			<path class="st0" d="M50,0C23.8,0,2.5,21.3,2.5,47.5c0,1.2,1,2.3,2.3,2.3H21c1.2,0,2.3-1,2.3-2.3c0-14.8,12-26.8,26.8-26.8
				s26.8,12,26.8,26.8c0,1.2,1,2.3,2.3,2.3h16.2c1.2,0,2.3-1,2.3-2.3C97.5,21.3,76.2,0,50,0z M70.4,23.9c-4.9-4.3-11.2-7-18.2-7.5
				V4.6c10.1,0.5,19.3,4.6,26.4,11L70.4,23.9z M18.8,45.2H7.1c0.5-10.2,4.6-19.4,11-26.5l8.3,8.3C22.1,32,19.3,38.3,18.8,45.2z
				 M29.6,23.9l-8.3-8.3c7.1-6.4,16.3-10.4,26.5-11v11.7C40.8,16.8,34.5,19.6,29.6,23.9z M81.2,45.2C80.7,38.3,77.9,32,73.6,27
				l8.3-8.3c6.4,7.1,10.5,16.3,11,26.5H81.2z"/>
		</g>
		<g>
			<path class="st0" d="M63.4,30c-3,1.2-17.8,7.5-20.9,10.8c-3.8,4-3.5,10.3,0.5,14.1c1.9,1.8,4.4,2.7,6.8,2.7
				c2.7,0,5.3-1.1,7.3-3.2c3.1-3.3,8.3-18.6,9.3-21.6c0.3-0.8,0-1.8-0.6-2.4C65.1,29.9,64.2,29.7,63.4,30z M53.8,51.4
				c-1,1.1-2.3,1.7-3.8,1.7c-1.4,0.1-2.8-0.5-3.9-1.5c-2.2-2.1-2.3-5.5-0.3-7.7c1.4-1.5,8.4-4.9,14.6-7.7
				C58.1,42.7,55.2,49.9,53.8,51.4z"/>
		</g>
	</g>
</g>
</svg>
