<?xml version="1.0" encoding="utf-8"?>
<!-- Generator: Adobe Illustrator 27.9.0, SVG Export Plug-In . SVG Version: 6.00 Build 0)  -->
<svg version="1.1" id="Layer_1" xmlns="http://www.w3.org/2000/svg" xmlns:xlink="http://www.w3.org/1999/xlink" x="0px" y="0px"
	 viewBox="0 0 100 100" style="enable-background:new 0 0 100 100;" xml:space="preserve">
<style type="text/css">
	.st0{fill:#9242D4;}
</style>
<path class="st0" d="M67.6,49.4c0-0.1-0.1-0.2-0.1-0.3l-1.1-5.2L53.8,56.5l5.9,10l9.5-9.5L67.6,49.4z M19.6,41.1
	c-0.8,0.8-2,0.8-2.8,0s-0.8-2,0-2.8L19,36l-6.7-3.9c-0.2-0.1-0.4-0.2-0.6-0.4c-0.8-0.8-0.8-2,0-2.8l7.2-7.2c0.5-0.5,1.1-0.7,1.8-0.5
	l11.8,2.5c0.1,0,0.2,0,0.3,0.1l8.6,1.8c0.1,0,0.2,0,0.3,0.1L58.2,29l13.4-13.4c1.2-1.2,2.6-1.9,4.2-2.1c1.5-0.2,3.1,0.1,4.6,0.9
	c0.6,0.3,1.3,0.5,1.9,0.4c0.6-0.1,1.3-0.3,1.8-0.7c1.5-1.2,3.3-1.7,5-1.6c1.8,0.1,3.5,0.8,4.8,2.1l1.1,1.1c1.4,1.4,2.2,3.3,2.2,5.2
	c0,1.9-0.7,3.8-2.2,5.2l-0.5,0.5c-0.8,0.8-2,0.8-2.8,0s-0.8-2,0-2.8l0.5-0.5c0.7-0.7,1-1.5,1-2.4c0-0.9-0.3-1.7-1-2.4l-1.1-1.1
	c-0.6-0.6-1.4-0.9-2.2-1c-0.8,0-1.6,0.2-2.3,0.7c-1.2,0.9-2.6,1.5-4,1.6c-1.4,0.1-2.9-0.2-4.2-0.9c-0.7-0.4-1.4-0.5-2.1-0.4
	c-0.7,0.1-1.4,0.4-1.9,1l-46,46c-0.5,0.5-1.2,0.7-1.8,0.5l-16.3-2.1l-2.7,2.7l8.5,8.5c3.7,3.7,8.8,4.4,14.8,2.6
	c6.5-2,13.9-6.8,21.9-14l-3.2-5.4c-0.5-0.8-0.3-1.8,0.3-2.4l16.3-16.3c0.8-0.8,2-0.8,2.8,0c0.3,0.3,0.5,0.7,0.6,1.1l1.1,5.2
	l11.6-11.6c0.8-0.8,2-0.8,2.8,0s0.8,2,0,2.8L71.7,49.5l1.6,7.6c0,0.1,0,0.2,0.1,0.3l1.8,8.6c0,0.1,0,0.2,0.1,0.3L77.7,78
	c0.1,0.7-0.1,1.4-0.5,1.8L69.9,87c-0.8,0.8-2,0.8-2.8,0c-0.2-0.2-0.3-0.4-0.4-0.6l-3.9-6.7L60.5,82c-0.8,0.8-2,0.8-2.8,0
	s-0.8-2,0-2.8l3-3L58.8,73l-3.7,3.7c-0.8,0.8-2,0.8-2.8,0s-0.8-2,0-2.8l4.4-4.4l-2-3.3C46.6,73.4,38.9,78.3,32,80.4
	c-7.5,2.3-13.9,1.3-18.8-3.6l-9.9-9.9c-0.8-0.8-0.8-2,0-2.8l4.8-4.8c0.4-0.4,1-0.7,1.7-0.6l16.5,2.1l13-13l-10-5.9l-4.4,4.4
	c-0.8,0.8-2,0.8-2.8,0s-0.8-2,0-2.8l3.7-3.7l-3.2-1.9L19.6,41.1z M21.9,33.1l6.3-6.3L21,25.2l-4.6,4.6L21.9,33.1L21.9,33.1z
	 M32.9,27.7l-7.4,7.4l3.2,1.9l8.4-8.4L32.9,27.7L32.9,27.7z M41.7,29.6l-9.5,9.5l10,5.9l12.6-12.6L41.7,29.6L41.7,29.6z M63.6,73.3
	l7.4-7.4l-0.9-4.2l-8.4,8.4L63.6,73.3L63.6,73.3z M72,70.5l-6.3,6.3l3.2,5.5l4.6-4.6L72,70.5L72,70.5z M89.6,31.6
	c-0.8,0.8-2,0.8-2.8,0c-0.8-0.8-0.8-2,0-2.8l0.5-0.5c0.8-0.8,2-0.8,2.8,0s0.8,2,0,2.8L89.6,31.6z"/>
</svg>
