<?xml version="1.0" encoding="utf-8"?>
<!-- Generator: Adobe Illustrator 27.9.0, SVG Export Plug-In . SVG Version: 6.00 Build 0)  -->
<svg version="1.1" id="Layer_1" xmlns="http://www.w3.org/2000/svg" xmlns:xlink="http://www.w3.org/1999/xlink" x="0px" y="0px"
	 viewBox="0 0 100 100" style="enable-background:new 0 0 100 100;" xml:space="preserve">
<style type="text/css">
	.st0{fill:#9242D4;}
</style>
<path class="st0" d="M38,52.5c-3.5,0-6.2,2.8-6.2,6.2c0,3.4,2.8,6.2,6.2,6.2c3.4,0,6.2-2.8,6.2-6.2C44.1,55.3,41.4,52.5,38,52.5z
	 M38,61.4c-1.6,0-2.8-1.2-2.8-2.8c0-1.6,1.2-2.8,2.8-2.8c1.6,0,2.8,1.2,2.8,2.8C40.8,60.2,39.6,61.4,38,61.4z"/>
<path class="st0" d="M60.4,52.5c-3.5,0-6.2,2.8-6.2,6.2c0,3.4,2.8,6.2,6.2,6.2s6.2-2.8,6.2-6.2C66.5,55.3,63.8,52.5,60.4,52.5z
	 M60.4,61.4c-1.6,0-2.8-1.2-2.8-2.8c0-1.6,1.2-2.8,2.8-2.8c1.6,0,2.8,1.2,2.8,2.8C63.2,60.2,61.9,61.4,60.4,61.4z"/>
<path class="st0" d="M83.3,55.8h-1.7v-0.1c0-6.5-3.9-12.1-9.4-14.7l3.7-8.2h0.2c0.8,0,1.5-0.1,2.2-0.4c1.2-0.6,2.2-1.7,2.7-2.9
	c0.4-1.3,0.4-2.8-0.2-4c-0.6-1.2-1.7-2.2-2.9-2.7c-1.3-0.4-2.8-0.4-4,0.2c-1.2,0.6-2.2,1.7-2.7,2.9c-0.4,1.3-0.4,2.8,0.2,4
	c0.3,0.7,0.8,1.3,1.5,1.8l-3.8,8.1c-1.2-0.2-2.4-0.4-3.7-0.4H33c-0.7,0-1.2,0-1.8,0.1l-3.6-7.9c0.6-0.4,1.1-1.1,1.5-1.8
	c0.6-1.2,0.7-2.7,0.2-4c-0.4-1.3-1.5-2.4-2.7-2.9c-1.2-0.6-2.7-0.7-4-0.2c-1.3,0.4-2.4,1.5-2.9,2.7c-0.6,1.2-0.7,2.7-0.2,4
	c0.8,2.1,2.8,3.5,4.9,3.5h0.2l3.4,7.5c-6.4,2.1-11.1,8.3-11.1,15.3v0.1h-1.7c-3.7,0-6.7,3-6.7,6.7c0,3.7,3,6.7,6.7,6.7h1.9
	c1.1,5.9,6.4,10.5,12.6,10.5h39.2c6.3,0,11.5-4.5,12.6-10.5h1.9c3.7,0,6.7-3,6.7-6.7C90,58.9,87,55.8,83.3,55.8L83.3,55.8z M74.4,27
	c0.2-0.4,0.6-0.9,1-1.1c0.2-0.1,0.6-0.2,0.8-0.2c0.2,0,0.4,0,0.7,0.1c0.4,0.2,0.9,0.6,1.1,1c0.2,0.4,0.2,1,0.1,1.5
	c-0.2,0.4-0.6,0.9-1,1.1c-0.4,0.2-1,0.2-1.5,0.1c-0.4-0.2-0.9-0.6-1.1-1C74.2,28,74.2,27.4,74.4,27L74.4,27z M22.3,28.3
	c-0.2-0.4-0.1-1,0.1-1.5c0.2-0.4,0.6-0.8,1.1-1c0.2-0.1,0.4-0.1,0.7-0.1c0.2,0,0.6,0.1,0.8,0.2c0.4,0.2,0.8,0.6,1,1.1
	c0.2,0.4,0.1,1-0.1,1.5c-0.2,0.4-0.6,0.8-1.1,1c-0.4,0.2-1,0.1-1.5-0.1C22.9,29.1,22.6,28.8,22.3,28.3L22.3,28.3z M11.7,62.6
	c0-1.8,1.5-3.4,3.4-3.4h1.7v6.7h-1.7C13.2,65.8,11.7,64.3,11.7,62.6z M78.3,66.8c0,5.3-4.3,9.5-9.5,9.5H29.6c-5.3,0-9.5-4.3-9.5-9.5
	V55.6c0-7,5.8-12.9,12.9-12.9h32.4c7,0,12.9,5.8,12.9,12.9V66.8z M83.3,65.8h-1.7v-6.7h1.7c1.8,0,3.4,1.5,3.4,3.4
	C86.7,64.3,85.2,65.8,83.3,65.8z"/>
<path class="st0" d="M64.3,46.3H34.1c-5.8,0-10.6,4.8-10.6,10.6V66c0,4,3.2,7.3,7.3,7.3h36.9c4,0,7.3-3.2,7.3-7.3V57
	C74.9,51,70.1,46.3,64.3,46.3z M71.6,66c0,2.1-1.8,3.9-3.9,3.9H30.7c-2.1,0-3.9-1.8-3.9-3.9V57c0-4,3.2-7.3,7.3-7.3h30.2
	c4,0,7.3,3.2,7.3,7.3V66z"/>
</svg>
