<?xml version="1.0" encoding="utf-8"?>
<!-- Generator: Adobe Illustrator 27.9.0, SVG Export Plug-In . SVG Version: 6.00 Build 0)  -->
<svg version="1.1" id="Layer_1" xmlns="http://www.w3.org/2000/svg" xmlns:xlink="http://www.w3.org/1999/xlink" x="0px" y="0px"
	 viewBox="0 0 95 90" style="enable-background:new 0 0 95 90;" xml:space="preserve">
<style type="text/css">
	.st0{fill-rule:evenodd;clip-rule:evenodd;fill:#FFFFFF;}
	.st1{fill-rule:evenodd;clip-rule:evenodd;}
	.st2{fill-rule:evenodd;clip-rule:evenodd;fill:none;stroke:#6A40B3;stroke-width:2.5;stroke-miterlimit:10;}
</style>
<rect x="8.7" y="59.6" class="st0" width="12.9" height="22.1"/>
<rect x="30.5" y="35.3" class="st0" width="12.9" height="46.5"/>
<rect x="51.8" y="46.5" class="st0" width="12.9" height="34.9"/>
<rect x="73.2" y="23.7" class="st0" width="12.9" height="58.4"/>
<path class="st1" d="M10.5,58.2h9.8c1.6,0,2.8,1.3,2.8,2.8v19.5c0,1.6-1.3,2.8-2.8,2.8h-9.8c-1.6,0-2.8-1.3-2.8-2.8V61
	C7.7,59.4,8.9,58.2,10.5,58.2z M3.6,86.4c-0.6,0-1.1-0.4-1.1-1c0-0.6,0.4-1.1,1-1.1c0,0,0,0,0.1,0h87.9c0.6,0,1,0.5,1,1.1
	c0,0.6-0.5,1-1,1H3.6z M76,15.2L63.4,29.4c2.3,2.9,1.9,7.1-0.9,9.4c-2.9,2.3-7.1,1.9-9.4-0.9c-1.4-1.8-1.9-4.2-1.2-6.3l-9.7-5
	c-2.1,2.9-6.1,3.6-9.1,1.6L20.6,41.6c2.3,2.9,1.8,7.1-1.1,9.4c-2.9,2.3-7.1,1.8-9.4-1.1s-1.8-7.1,1.1-9.4c2.3-1.8,5.4-1.9,7.9-0.3
	l12.4-13.5c-2.3-2.9-1.8-7.1,1.1-9.4s7.1-1.8,9.4,1.1c1.4,1.8,1.8,4.1,1.1,6.2l9.7,5c2.1-2.8,6-3.6,9-1.7l12.6-14.2
	c-2.3-2.9-1.9-7.1,0.9-9.4c2.9-2.3,7.1-1.9,9.4,0.9c2.3,2.9,1.9,7.1-0.9,9.4C81.6,16.5,78.5,16.7,76,15.2z M82.9,6.3
	c-1.8-1.8-4.7-1.8-6.5,0c-1.8,1.8-1.8,4.7,0,6.5s4.7,1.8,6.5,0c0.9-0.9,1.3-2,1.3-3.2C84.2,8.3,83.7,7.1,82.9,6.3z M61.4,30.4
	c-1.8-1.8-4.7-1.8-6.5,0c-1.8,1.8-1.8,4.7,0,6.5c1.8,1.8,4.7,1.8,6.5,0c0.9-0.9,1.3-2,1.3-3.2C62.8,32.4,62.3,31.2,61.4,30.4z
	 M40,19.3c-1.8-1.8-4.7-1.8-6.5,0c-1.8,1.8-1.8,4.7,0,6.5c1.8,1.8,4.7,1.8,6.5,0c0.9-0.9,1.3-2,1.3-3.2C41.4,21.3,40.9,20.2,40,19.3
	z M18.6,42.5c-1.8-1.8-4.7-1.8-6.5,0c-1.8,1.8-1.8,4.7,0,6.5c1.8,1.8,4.7,1.8,6.5,0c0.9-0.9,1.3-2,1.3-3.2
	C20,44.5,19.5,43.4,18.6,42.5z M74.7,22.3c-1.6,0-2.8,1.3-2.8,2.8v55.4c0,1.6,1.3,2.8,2.8,2.8h9.8c1.6,0,2.8-1.3,2.8-2.8V25.1
	c0-1.6-1.3-2.8-2.8-2.8H74.7z M84.5,24.4h-9.8c-0.4,0-0.7,0.3-0.7,0.7v55.4c0,0.4,0.3,0.7,0.7,0.7h9.8c0.4,0,0.7-0.3,0.7-0.7V25.1
	C85.2,24.8,84.9,24.4,84.5,24.4z M53.3,45.1c-1.6,0-2.8,1.3-2.8,2.8v32.6c0,1.6,1.3,2.8,2.8,2.8h9.8c1.6,0,2.8-1.3,2.8-2.8V47.9
	c0-1.6-1.3-2.8-2.8-2.8H53.3z M63.1,47.2h-9.8c-0.4,0-0.7,0.3-0.7,0.7v32.6c0,0.4,0.3,0.7,0.7,0.7h9.8c0.4,0,0.7-0.3,0.7-0.7V47.9
	C63.8,47.5,63.5,47.2,63.1,47.2z M31.9,34.3c-1.6,0-2.8,1.3-2.8,2.8v43.4c0,1.6,1.3,2.8,2.8,2.8h9.8c1.6,0,2.8-1.3,2.8-2.8V37.1
	c0-1.6-1.3-2.8-2.8-2.8H31.9z M41.7,36.4h-9.8c-0.4,0-0.7,0.3-0.7,0.7v43.4c0,0.4,0.3,0.7,0.7,0.7h9.8c0.4,0,0.7-0.3,0.7-0.7V37.1
	C42.4,36.8,42.1,36.4,41.7,36.4z M20.3,60.3h-9.8c-0.4,0-0.7,0.3-0.7,0.7v19.5c0,0.4,0.3,0.7,0.7,0.7h9.8c0.4,0,0.7-0.3,0.7-0.7V61
	C21,60.6,20.6,60.3,20.3,60.3L20.3,60.3z"/>
<circle class="st2" cx="15.4" cy="45.7" r="5.5"/>
<circle class="st2" cx="36.8" cy="22.5" r="5.5"/>
<circle class="st2" cx="58.2" cy="33.6" r="5.5"/>
<circle class="st2" cx="79.6" cy="9.5" r="5.5"/>
</svg>
