<?xml version="1.0" encoding="utf-8"?>
<!-- Generator: Adobe Illustrator 27.9.0, SVG Export Plug-In . SVG Version: 6.00 Build 0)  -->
<svg version="1.1" id="Layer_1" xmlns="http://www.w3.org/2000/svg" xmlns:xlink="http://www.w3.org/1999/xlink" x="0px" y="0px"
	 viewBox="0 0 214.3 95.3" style="enable-background:new 0 0 214.3 95.3;" xml:space="preserve">
<style type="text/css">
	.st0{fill:#FFFFFF;}
	.st1{fill:#6A40B3;}
</style>
<rect x="59.8" y="5.2" class="st0" width="95" height="84.5"/>
<path d="M63.7,4c-3.6,0-6.6,3-6.6,6.6v74.2c0,3.6,3,6.6,6.6,6.6h86.8c3.6,0,6.6-3,6.6-6.6V10.5c0-3.6-3-6.6-6.6-6.6L63.7,4z
	 M63.7,7.1h86.8c1.9,0,3.5,1.5,3.5,3.4v10.8l-93.8,0V10.5C60.2,8.6,61.7,7.1,63.7,7.1L63.7,7.1z M68.5,12c-1.2,0-2.1,1-2.1,2.1
	s1,2.1,2.1,2.1s2.1-1,2.1-2.1C70.6,13,69.7,12,68.5,12z M76.6,12c-1.2,0-2.1,1-2.1,2.1s1,2.1,2.1,2.1c1.2,0,2.1-1,2.1-2.1
	C78.7,13,77.8,12,76.6,12z M84.7,12c-1.2,0-2.1,1-2.1,2.1s1,2.1,2.1,2.1c1.2,0,2.1-1,2.1-2.1C86.8,13,85.9,12,84.7,12z M60.2,24.4
	l93.8,0v60.3c0,1.9-1.5,3.4-3.5,3.4H63.7c-1.9,0-3.5-1.5-3.5-3.4L60.2,24.4z"/>
<path class="st1" d="M210.8,64.8c-0.9-9-7-16.2-15.2-18.8c5.2-2.5,8.8-7.9,8.8-14c0-8.6-7-15.6-15.6-15.6c-8.6,0-15.6,7-15.6,15.6
	c0,6.2,3.6,11.5,8.8,14c-8.2,2.6-14.3,9.8-15.2,18.8c-0.1,0.8,0.5,1.5,1.3,1.6c0.8,0.1,1.5-0.5,1.6-1.3c1-9.9,9.2-17.3,19.2-17.3
	c9.9,0,18.2,7.4,19.2,17.3c0.1,0.7,0.7,1.3,1.4,1.3c0,0,0.1,0,0.1,0C210.3,66.3,210.8,65.5,210.8,64.8z M176,31.9
	c0-7,5.7-12.7,12.7-12.7c7,0,12.7,5.7,12.7,12.7s-5.7,12.7-12.7,12.7C181.7,44.7,176,39,176,31.9z"/>
<path class="st1" d="M46.5,66c-0.9-9-7-16.2-15.2-18.8c5.2-2.5,8.8-7.9,8.8-14c0-8.6-7-15.6-15.6-15.6c-8.6,0-15.6,7-15.6,15.6
	c0,6.2,3.6,11.5,8.8,14C9.4,49.8,3.3,57,2.4,66c-0.1,0.8,0.5,1.5,1.3,1.6c0.8,0.1,1.5-0.5,1.6-1.3c1-9.9,9.2-17.3,19.2-17.3
	c9.9,0,18.2,7.4,19.2,17.3c0.1,0.7,0.7,1.3,1.4,1.3c0,0,0.1,0,0.1,0C46,67.5,46.5,66.7,46.5,66z M11.7,33.1c0-7,5.7-12.7,12.7-12.7
	s12.7,5.7,12.7,12.7s-5.7,12.7-12.7,12.7S11.7,40.2,11.7,33.1z"/>
</svg>
