<?xml version="1.0" encoding="utf-8"?>
<!-- Generator: Adobe Illustrator 27.9.0, SVG Export Plug-In . SVG Version: 6.00 Build 0)  -->
<svg version="1.1" id="Layer_1" xmlns="http://www.w3.org/2000/svg" xmlns:xlink="http://www.w3.org/1999/xlink" x="0px" y="0px"
	 viewBox="0 0 199.8 61.8" style="enable-background:new 0 0 199.8 61.8;" xml:space="preserve">
<style type="text/css">
	.st0{fill:none;stroke:#FFFFFF;stroke-width:5;stroke-miterlimit:10;}
	.st1{fill:#CECECE;}
	.st2{fill:none;stroke:#6A40B3;stroke-width:5;stroke-linecap:round;stroke-miterlimit:10;}
</style>
<circle class="st0" cx="169.2" cy="31.4" r="26.9"/>
<circle class="st0" cx="99.6" cy="31.4" r="26.9"/>
<circle class="st0" cx="30.1" cy="31.4" r="26.9"/>
<g>
	<path d="M97.1,26.8l3.6-7.2v-0.1h-4.2V18h6.1v1.5L99,26.8H97.1z"/>
	<path class="st1" d="M97.1,32.4v8.7h-1.8v-7h-0.1l-2,1.3v-1.6l2.2-1.4H97.1z"/>
	<path class="st1" d="M102.6,41.4c-0.7,0-1.4-0.2-1.9-0.5c-0.5-0.4-0.9-0.9-1.2-1.6c-0.3-0.7-0.4-1.5-0.4-2.5c0-1,0.1-1.8,0.4-2.4
		c0.3-0.7,0.7-1.2,1.2-1.5c0.5-0.4,1.2-0.5,1.9-0.5c0.7,0,1.4,0.2,1.9,0.5c0.5,0.4,0.9,0.9,1.2,1.5s0.4,1.5,0.4,2.4
		c0,1-0.1,1.8-0.4,2.5c-0.3,0.7-0.7,1.2-1.2,1.6C103.9,41.2,103.3,41.4,102.6,41.4z M102.6,39.8c0.5,0,0.9-0.3,1.2-0.8
		c0.3-0.5,0.4-1.3,0.4-2.3c0-0.7-0.1-1.2-0.2-1.7s-0.3-0.8-0.6-1c-0.2-0.2-0.5-0.3-0.9-0.3c-0.5,0-0.9,0.2-1.2,0.7
		c-0.3,0.5-0.4,1.2-0.5,2.2c0,0.7,0.1,1.2,0.2,1.7c0.1,0.4,0.3,0.8,0.6,1C102,39.7,102.2,39.8,102.6,39.8z"/>
</g>
<g>
	<path d="M169.1,17.9c0.4,0,0.9,0.1,1.3,0.2c0.4,0.2,0.8,0.4,1.1,0.7s0.6,0.8,0.8,1.3c0.2,0.5,0.3,1.2,0.3,2c0,0.7-0.1,1.4-0.2,2
		c-0.2,0.6-0.4,1.1-0.7,1.5s-0.7,0.7-1.1,0.9c-0.4,0.2-0.9,0.3-1.5,0.3c-0.6,0-1.1-0.1-1.5-0.3c-0.4-0.2-0.8-0.5-1.1-0.9
		s-0.4-0.8-0.5-1.3h1.8c0.1,0.3,0.2,0.6,0.4,0.7c0.2,0.2,0.5,0.3,0.8,0.3c0.6,0,1-0.2,1.3-0.7c0.3-0.5,0.4-1.2,0.4-2h-0.1
		c-0.1,0.3-0.3,0.5-0.5,0.7s-0.5,0.3-0.8,0.4c-0.3,0.1-0.6,0.1-0.9,0.1c-0.5,0-1-0.1-1.4-0.4c-0.4-0.2-0.7-0.6-1-1
		c-0.2-0.4-0.3-0.9-0.3-1.4c0-0.6,0.1-1.1,0.4-1.6c0.3-0.5,0.7-0.8,1.1-1.1S168.5,17.9,169.1,17.9z M169.1,19.4
		c-0.3,0-0.5,0.1-0.8,0.2c-0.2,0.1-0.4,0.3-0.5,0.5c-0.1,0.2-0.2,0.5-0.2,0.8c0,0.3,0.1,0.5,0.2,0.8c0.1,0.2,0.3,0.4,0.5,0.5
		c0.2,0.1,0.5,0.2,0.8,0.2c0.2,0,0.4,0,0.6-0.1s0.3-0.2,0.5-0.3s0.2-0.3,0.3-0.5c0.1-0.2,0.1-0.4,0.1-0.6c0-0.3-0.1-0.5-0.2-0.8
		c-0.1-0.2-0.3-0.4-0.5-0.6S169.4,19.4,169.1,19.4z"/>
	<path class="st1" d="M166.6,32.4v8.7h-1.8v-7h-0.1l-2,1.3v-1.6l2.2-1.4H166.6z"/>
	<path class="st1" d="M172.1,41.4c-0.7,0-1.4-0.2-1.9-0.5c-0.5-0.4-0.9-0.9-1.2-1.6c-0.3-0.7-0.4-1.5-0.4-2.5c0-1,0.1-1.8,0.4-2.4
		c0.3-0.7,0.7-1.2,1.2-1.5c0.5-0.4,1.2-0.5,1.9-0.5c0.7,0,1.4,0.2,1.9,0.5c0.5,0.4,0.9,0.9,1.2,1.5s0.4,1.5,0.4,2.4
		c0,1-0.1,1.8-0.4,2.5c-0.3,0.7-0.7,1.2-1.2,1.6C173.5,41.2,172.9,41.4,172.1,41.4z M172.1,39.8c0.5,0,0.9-0.3,1.2-0.8
		c0.3-0.5,0.4-1.3,0.4-2.3c0-0.7-0.1-1.2-0.2-1.7s-0.3-0.8-0.6-1c-0.2-0.2-0.5-0.3-0.9-0.3c-0.5,0-0.9,0.2-1.2,0.7
		c-0.3,0.5-0.4,1.2-0.5,2.2c0,0.7,0.1,1.2,0.2,1.7c0.1,0.4,0.3,0.8,0.6,1C171.5,39.7,171.8,39.8,172.1,39.8z"/>
</g>
<g>
	<path d="M30.1,26.9c-0.7,0-1.2-0.1-1.7-0.3c-0.5-0.2-0.9-0.5-1.2-0.9c-0.3-0.4-0.4-0.8-0.4-1.3c0-0.4,0.1-0.7,0.2-1
		c0.2-0.3,0.4-0.6,0.7-0.8c0.3-0.2,0.6-0.3,1-0.4v-0.1c-0.5-0.1-0.8-0.3-1.1-0.7c-0.3-0.4-0.4-0.8-0.4-1.3c0-0.5,0.1-0.9,0.4-1.2
		c0.3-0.4,0.6-0.6,1.1-0.8c0.5-0.2,1-0.3,1.6-0.3c0.6,0,1.1,0.1,1.6,0.3c0.5,0.2,0.8,0.5,1.1,0.8c0.3,0.4,0.4,0.8,0.4,1.2
		c0,0.5-0.2,0.9-0.4,1.3c-0.3,0.4-0.7,0.6-1.1,0.7v0.1c0.3,0.1,0.7,0.2,1,0.4s0.5,0.5,0.7,0.8c0.2,0.3,0.3,0.6,0.3,1
		c0,0.5-0.1,0.9-0.4,1.3c-0.3,0.4-0.7,0.7-1.2,0.9C31.3,26.8,30.7,26.9,30.1,26.9z M30.1,25.5c0.3,0,0.5-0.1,0.8-0.2
		s0.4-0.3,0.5-0.4s0.2-0.4,0.2-0.7c0-0.3-0.1-0.5-0.2-0.7c-0.1-0.2-0.3-0.3-0.5-0.5C30.6,23,30.4,23,30.1,23c-0.3,0-0.5,0.1-0.8,0.2
		c-0.2,0.1-0.4,0.3-0.5,0.5c-0.1,0.2-0.2,0.4-0.2,0.7c0,0.2,0.1,0.5,0.2,0.7c0.1,0.2,0.3,0.3,0.5,0.4C29.5,25.5,29.8,25.5,30.1,25.5
		z M30.1,21.6c0.2,0,0.5,0,0.7-0.1c0.2-0.1,0.3-0.2,0.4-0.4c0.1-0.2,0.2-0.4,0.2-0.6c0-0.2-0.1-0.4-0.2-0.6
		c-0.1-0.2-0.3-0.3-0.4-0.4c-0.2-0.1-0.4-0.1-0.7-0.1c-0.2,0-0.5,0-0.7,0.1c-0.2,0.1-0.3,0.2-0.4,0.4c-0.1,0.2-0.2,0.4-0.2,0.6
		c0,0.2,0.1,0.4,0.2,0.6c0.1,0.2,0.3,0.3,0.4,0.4C29.6,21.6,29.8,21.6,30.1,21.6z"/>
	<path class="st1" d="M27.5,32.4v8.7h-1.8v-7h-0.1l-2,1.3v-1.6l2.2-1.4H27.5z"/>
	<path class="st1" d="M33,41.4c-0.7,0-1.4-0.2-1.9-0.5c-0.5-0.4-0.9-0.9-1.2-1.6c-0.3-0.7-0.4-1.5-0.4-2.5c0-1,0.1-1.8,0.4-2.4
		c0.3-0.7,0.7-1.2,1.2-1.5s1.2-0.5,1.9-0.5c0.7,0,1.4,0.2,1.9,0.5c0.5,0.4,0.9,0.9,1.2,1.5s0.4,1.5,0.4,2.4c0,1-0.1,1.8-0.4,2.5
		s-0.7,1.2-1.2,1.6C34.4,41.2,33.8,41.4,33,41.4z M33,39.8c0.5,0,0.9-0.3,1.2-0.8c0.3-0.5,0.4-1.3,0.4-2.3c0-0.7-0.1-1.2-0.2-1.7
		s-0.3-0.8-0.6-1c-0.2-0.2-0.5-0.3-0.9-0.3c-0.5,0-0.9,0.2-1.2,0.7c-0.3,0.5-0.4,1.2-0.5,2.2c0,0.7,0.1,1.2,0.2,1.7
		c0.1,0.4,0.3,0.8,0.6,1C32.4,39.7,32.7,39.8,33,39.8z"/>
</g>
<path class="st2" d="M193.8,20.6c1.4,3.3,2.3,7,2.3,10.8c0,14.8-12,26.9-26.9,26.9c-14.8,0-26.9-12-26.9-26.9s12-26.9,26.9-26.9"/>
<path class="st2" d="M126.5,31.4c0,14.8-12,26.9-26.9,26.9s-26.9-12-26.9-26.9s12-26.9,26.9-26.9"/>
<path class="st2" d="M52.1,15.8c3.1,4.4,4.9,9.7,4.9,15.5c0,14.8-12,26.9-26.9,26.9S3.2,46.2,3.2,31.4s12-26.9,26.9-26.9"/>
</svg>
