<?xml version="1.0" encoding="UTF-8"?>
<svg xmlns="http://www.w3.org/2000/svg" xmlns:xlink="http://www.w3.org/1999/xlink" width="256px" height="256px" viewBox="0 0 256 256" version="1.1">
<defs>
<linearGradient id="linear0" gradientUnits="userSpaceOnUse" x1="4.9691" y1="92.9465" x2="92.9463" y2="4.9693" gradientTransform="matrix(2.62618,0,0,2.62618,0,0.000000000000018752)">
<stop offset="0.00670458" style="stop-color:rgb(27.45098%,23.137255%,66.666667%);stop-opacity:1;"/>
<stop offset="0.5486" style="stop-color:rgb(65.098039%,12.156863%,100%);stop-opacity:1;"/>
<stop offset="1" style="stop-color:rgb(45.490196%,52.156863%,87.843137%);stop-opacity:1;"/>
</linearGradient>
</defs>
<g id="surface1">
<path style=" stroke:none;fill-rule:nonzero;fill:url(#linear0);" d="M 256 42.570312 C 256 19.09375 236.90625 0 213.429688 0 L 42.570312 0 C 19.09375 0 0 19.09375 0 42.570312 L 0 213.457031 C 0 236.933594 19.09375 256.027344 42.570312 256.027344 L 213.457031 256.027344 C 219.835938 256.027344 225.902344 254.609375 231.339844 252.0625 C 249.433594 246.28125 255.210938 231.183594 255.527344 222.359375 L 255.527344 219.917969 C 255.84375 217.816406 256.027344 215.660156 256.027344 213.457031 L 256.027344 42.570312 Z M 42.570312 21.21875 L 213.457031 21.21875 C 225.222656 21.21875 234.808594 30.804688 234.808594 42.570312 L 234.808594 213.457031 C 234.808594 223.066406 228.425781 231.207031 219.679688 233.886719 C 218.261719 234.046875 216.738281 234.125 215.058594 234.125 L 138.242188 234.125 C 136.957031 233.730469 134.039062 232.601562 131.230469 230.027344 C 126.265625 225.484375 123.773438 218.394531 123.773438 208.992188 C 123.773438 178.132812 123.21875 140.554688 123.195312 140.160156 L 123.035156 130.179688 L 37.765625 130.179688 L 37.027344 130.207031 C 36.949219 130.207031 29.414062 130.496094 24.894531 126.292969 C 23.03125 124.558594 21.824219 122.144531 21.21875 119.019531 L 21.21875 82.199219 L 159.277344 82.199219 L 159.644531 82.25 L 160.277344 82.171875 C 160.90625 82.148438 165.054688 82.066406 167.839844 84.667969 C 170.859375 87.476562 171.488281 92.835938 171.488281 96.851562 L 171.488281 201.613281 L 191.761719 201.613281 L 191.761719 96.828125 C 191.761719 84.929688 188.246094 75.738281 181.285156 69.488281 C 172.59375 61.6875 161.878906 61.742188 158.882812 61.953125 L 21.21875 61.953125 L 21.21875 42.570312 C 21.21875 30.777344 30.777344 21.21875 42.570312 21.21875 Z M 21.21875 213.429688 L 21.21875 147.511719 C 28.835938 150.613281 35.980469 150.53125 38.078125 150.453125 L 103.078125 150.453125 C 103.234375 163.714844 103.496094 187.929688 103.496094 208.992188 C 103.496094 219.757812 105.941406 228.242188 109.589844 234.808594 L 42.570312 234.808594 C 30.777344 234.808594 21.21875 225.222656 21.21875 213.429688 Z M 21.21875 213.429688 "/>
</g>
</svg>
